<svg version="1.1" id="Layer_1" xmlns="http://www.w3.org/2000/svg" x="0" y="0" viewBox="0 0 247.7 226.3" xml:space="preserve"><style>.st5{fill:#808285}</style><radialGradient id="SVGID_1_" cx="139.383" cy="109.683" r="126.128" gradientUnits="userSpaceOnUse"><stop offset="0" stop-color="#828282"/><stop offset=".316" stop-color="#848484" stop-opacity=".684"/><stop offset=".493" stop-color="#8c8c8c" stop-opacity=".507"/><stop offset=".635" stop-color="#999a9a" stop-opacity=".365"/><stop offset=".758" stop-color="#acadae" stop-opacity=".241"/><stop offset=".87" stop-color="#c5c6c7" stop-opacity=".13"/><stop offset=".972" stop-color="#e2e4e6" stop-opacity=".028"/><stop offset="1" stop-color="#eceef0" stop-opacity="0"/></radialGradient><path d="M82.3 162.9l60.1 60.1c2.6.2 2.8.4 5.4 0 44-7.1 91.4-42.8 96.2-98.9.1-1.5-.3.4-.3-1l-47-47-114.4 86.8z" fill="url(#SVGID_1_)"/><path d="M134.6 0c-25.1 0-48.9 8.1-68.8 23.3l3.7 4.8C88.2 13.6 110.8 6 134.6 6c59.1 0 107.1 48.1 107.1 107.1 0 59.1-48.1 107.1-107.1 107.1-28.3 0-56.1-12.2-76.3-32.1H55c-20.1 0-36.4-6.1-47.3-17.6L22 150.8c9.4 7.9 19.5 12.1 28.9 12.1 14.9 0 23.8-6.2 23.8-16.6 0-14.2-9.8-19.8-35.8-20.2V105c14.2-.3 31.2-3.1 31.2-19.3 0-10.2-6.5-16.1-17.9-16.1-9.6 0-16.7 3.8-25 10.5L11.7 61.2c13.7-10.9 27.3-16 42.4-16 30.7 0 49.1 14 49.1 37.5 0 12.7-7 21.9-21.3 28.3l-1.8.8v5.1l2.1.6c16.4 5 25.5 16.2 25.5 31.5h6c0-16.3-8.5-28.6-24.1-35.2 13-7.3 19.5-17.7 19.5-31.1 0-13.6-5.3-24.8-15.3-32.4-9.6-7.3-23.3-11.1-39.7-11.1-17.2 0-33.1 6.3-48.5 19.3l-2.3 1.9 23.3 28.2 2.3-2c8.4-7.2 14.7-11.1 23.4-11.1 5.1 0 11.9 1 11.9 10.1C64.2 92.3 60.8 99 36 99h-3v33.2h3c32.8 0 32.8 7.9 32.8 14.2 0 9.2-11.2 10.6-17.8 10.6-8.7 0-18.5-4.5-27.4-12.8l-2.5-2.3L0 171l1.5 1.8c12 14 30.5 21.4 53.4 21.4h.7c21.2 20.7 49.2 32.1 78.9 32.1 62.4 0 113.1-50.7 113.1-113.1C247.7 50.7 196.9 0 134.6 0z" fill="#39b54a"/><path d="M206.8 113c0 39.9-32.3 72.3-72.3 72.3-39.9 0-72.3-32.4-72.3-72.3s32.4-72.3 72.3-72.3c40 .1 72.3 32.4 72.3 72.3z" fill="#fff"/><radialGradient id="SVGID_2_" cx="75.015" cy="45.428" r="208.815" gradientUnits="userSpaceOnUse"><stop offset="0" stop-color="#f6f6f7"/><stop offset=".477" stop-color="#fafafb"/><stop offset=".715" stop-color="#fff"/></radialGradient><path d="M206.8 113c0-18.4-6.9-35.1-18.1-47.9-13.2-13.8-31.7-22.4-52.3-22.4-39.9 0-72.3 32.4-72.3 72.3 0 18.4 6.9 35.1 18.1 47.9 13.2 13.8 31.7 22.4 52.3 22.4 40 0 72.3-32.4 72.3-72.3z" fill="url(#SVGID_2_)"/><g><path d="M199.5 81.3c4 9 6.2 18.9 6.2 29.4 0 39.9-32.4 72.3-72.3 72.3-24 0-45.2-11.7-58.4-29.7 2.1 3.4 4.5 6.6 7.2 9.6 13.2 13.8 31.7 22.4 52.3 22.4 39.9 0 72.3-32.4 72.3-72.3 0-11.3-2.6-22.1-7.3-31.7z" fill="#eceef0"/></g><g><path class="st5" d="M154.1 86.1c-.6-.6-1.7-.6-2.3 0-.6.6-.6 1.7 0 2.3l.1.1c.6.6 1.6.6 2.3-.1.5-.6.6-1.6-.1-2.3.1.1.1 0 0 0z"/><path class="st5" d="M172.7 76.8c-6.4-6.4-16.8-6.4-23.2 0l-12.8 12.8c-4.6 4.6-6 11.6-3.7 17.6l-4.3 4.3c-6-2.4-13-1-17.6 3.7L98.3 128c-6.4 6.4-6.4 16.8 0 23.2 6.4 6.4 16.8 6.4 23.2 0l12.8-12.8c4.6-4.6 6-11.6 3.7-17.6l4.3-4.3c6.1 2.4 13 .9 17.6-3.7l12.8-12.8c6.4-6.4 6.4-16.8 0-23.2zM132 136.1l-12.8 12.8c-5.1 5.1-13.4 5.1-18.6 0-5.1-5.1-5.1-13.4 0-18.6l12.8-12.8c3.4-3.4 8.2-4.6 12.7-3.4l-4.6 4.6c-1.8.2-3.4 1.1-4.6 2.3l-12.8 12.8c-3.2 3.2-3.2 8.4 0 11.6 3.2 3.2 8.4 3.2 11.6 0l12.8-12.8c1.3-1.3 2.1-2.9 2.3-4.6l4.6-4.6c1.2 4.5 0 9.3-3.4 12.7zm-12.8-5.8c1.3 1.3 3.1 2 5.1 1.9l-10.9 10.9c-1.9 1.9-5 1.9-7 0-1.9-1.9-1.9-5 0-7l10.9-10.9c-.1 2 .6 3.8 1.9 5.1zm8.9-4.3l-1.9 1.9c-1.3 1.3-3.4 1.3-4.6 0-1.3-1.3-1.3-3.4 0-4.6l23.2-23.2c1.3-1.3 3.4-1.3 4.6 0 1.3 1.3 1.3 3.4 0 4.6L128.1 126zm29.4-15.5c-3.4 3.4-8.2 4.6-12.7 3.4l4.6-4.6c1.8-.2 3.4-1.1 4.6-2.3l12.8-12.8c3.2-3.2 3.2-8.4 0-11.6-2.6-2.6-6.7-3.2-10-1.3-.8.5-1 1.5-.6 2.2.5.8 1.5 1 2.2.6 1.9-1.1 4.4-.8 6 .8 1.9 1.9 1.9 5 0 7l-10.9 10.9c.1-1.9-.6-3.7-1.9-5.1-1.2-1.2-2.9-1.9-4.6-1.9h-.4l2.8-2.8c.6-.6.6-1.7 0-2.3-.6-.6-1.7-.6-2.3 0l-4.7 4.7c-1.3 1.3-2.1 2.9-2.3 4.6l-4.6 4.6c-1.2-4.5 0-9.3 3.4-12.7l12.8-12.8c5.1-5.1 13.4-5.1 18.6 0 5.1 5.1 5.1 13.4 0 18.6l-12.8 12.8zM120.4 98.9c.6-.6.6-1.7 0-2.3l-7-7c-.6-.6-1.7-.6-2.3 0-.6.6-.6 1.7 0 2.3l7 7c.6.7 1.7.7 2.3 0zM102.2 106c0 .9.7 1.6 1.6 1.6h9.8c.9 0 1.6-.7 1.6-1.6 0-.9-.7-1.6-1.6-1.6h-9.8c-.8-.1-1.6.7-1.6 1.6zM129.1 92.3v-9.8c0-.9-.7-1.6-1.6-1.6-.9 0-1.6.7-1.6 1.6v9.8c0 .9.7 1.6 1.6 1.6.9 0 1.6-.7 1.6-1.6zM150.6 129.1c-.6.6-.6 1.7 0 2.3l7 7c.6.6 1.7.6 2.3 0 .6-.6.6-1.7 0-2.3l-7-7c-.6-.6-1.7-.6-2.3 0zM142.1 135.8v9.8c0 .9.7 1.6 1.6 1.6.9 0 1.6-.7 1.6-1.6v-9.8c0-.9-.7-1.6-1.6-1.6-.9 0-1.6.7-1.6 1.6zM168.7 122.2c0-.9-.7-1.6-1.6-1.6h-9.8c-.9 0-1.6.7-1.6 1.6 0 .9.7 1.6 1.6 1.6h9.8c.9.1 1.6-.7 1.6-1.6z"/></g></svg>