<svg version="1.1" id="Layer_1" xmlns="http://www.w3.org/2000/svg" x="0" y="0" viewBox="0 0 245.8 226.3" xml:space="preserve"><style>.st5{fill:#808285}</style><radialGradient id="SVGID_1_" cx="137.13" cy="109.683" r="126.128" gradientUnits="userSpaceOnUse"><stop offset="0" stop-color="#828282"/><stop offset=".316" stop-color="#848484" stop-opacity=".684"/><stop offset=".493" stop-color="#8c8c8c" stop-opacity=".507"/><stop offset=".635" stop-color="#999a9a" stop-opacity=".365"/><stop offset=".758" stop-color="#acadae" stop-opacity=".241"/><stop offset=".87" stop-color="#c5c6c7" stop-opacity=".13"/><stop offset=".972" stop-color="#e2e4e6" stop-opacity=".028"/><stop offset="1" stop-color="#eceef0" stop-opacity="0"/></radialGradient><path d="M80.1 162.9l60.1 60.1c2.6.2 2.8.4 5.4 0 44-7.1 91.4-42.8 96.2-98.9.1-1.5-.3.4-.3-1l-47-47-114.4 86.8z" fill="url(#SVGID_1_)"/><path d="M132.7 0c-26.8 0-52.8 9.6-73.3 26.9l3.9 4.6C82.6 15.1 107.3 6 132.7 6c59.1 0 107.1 48.1 107.1 107.1 0 59.1-48.1 107.1-107.1 107.1-29.8 0-58.8-12.8-79-34.8H6v-25.2h30.8V80H9.6V61.5c14.5-3 24.7-6.9 35.4-13.5h24.7v112.2h28.8v-6H75.7V42H43.3l-.7.5C31.7 49.3 21.4 53.1 6 56.1l-2.4.5V86h27.2v68.2H0v37.2h51.1c21.3 22.1 50.9 34.8 81.6 34.8 62.4 0 113.1-50.7 113.1-113.1C245.8 50.7 195.1 0 132.7 0z" fill="#f7941e"/><path d="M204.6 113c0 39.9-32.3 72.3-72.3 72.3-39.9 0-72.3-32.4-72.3-72.3s32.4-72.3 72.3-72.3c39.9.1 72.3 32.4 72.3 72.3z" fill="#fff"/><radialGradient id="SVGID_2_" cx="72.762" cy="45.428" r="208.816" gradientUnits="userSpaceOnUse"><stop offset="0" stop-color="#f6f6f7"/><stop offset=".477" stop-color="#fafafb"/><stop offset=".715" stop-color="#fff"/></radialGradient><path d="M204.5 115.3c.6-19.3-6.3-36.9-18.1-50.2-13.7-14.4-33.2-23.1-54.8-22.3-37.8 1.3-68.5 32.1-69.7 69.9-.6 19.3 6.3 36.9 18.1 50.2 13.7 14.4 33.3 23.1 54.9 22.3 37.8-1.3 68.5-32.1 69.6-69.9z" fill="url(#SVGID_2_)"/><g><path d="M197.3 81.3c4 9 6.2 18.9 6.2 29.4 0 39.9-32.4 72.3-72.3 72.3-24 0-45.2-11.7-58.4-29.7 2.1 3.4 4.5 6.6 7.2 9.6 13.2 13.8 31.7 22.4 52.3 22.4 39.9 0 72.3-32.4 72.3-72.3 0-11.3-2.7-22.1-7.3-31.7z" fill="#eceef0"/></g><g><path class="st5" d="M179.6 105.9h-1.8c-1.6-9-5.9-17.3-12.5-23.9-8.6-8.6-19.9-13.3-32-13.3s-23.5 4.7-32 13.3c-6.7 6.7-11 15-12.6 24.1H87c-2 0-3.6 1.6-3.6 3.6v13.2c0 2 1.6 3.6 3.6 3.6h2.8c2.4 8.4 7.2 16 14 21.8.6.5 1.5.5 2.1-.2.5-.6.5-1.5-.2-2.1-1.8-1.5-3.4-3.1-4.8-4.9 2.2-.9 4.5-1.7 6.8-2.4 1.1 1.9 2.3 3.8 3.7 5.6 3 3.9 6.4 7.3 10 10.2-3-.9-5.9-2.1-8.6-3.6-.7-.4-1.6-.1-2 .6-.4.7-.1 1.6.6 2 6.7 3.7 14.3 5.7 22 5.7 12.1 0 23.5-4.7 32-13.3 5.5-5.5 9.4-12.2 11.5-19.4h2.8c2 0 3.6-1.6 3.6-3.6v-13.5c-.1-1.9-1.7-3.5-3.7-3.5zm-4.8 0h-10.2c-.1-.8-.3-1.5-.4-2.3-.9-4.2-2.2-8.2-4.1-12 .3-.1.5-.1.8-.2 1.9-.5 4.2-1.3 6.6-2.3 3.7 5 6.2 10.8 7.3 16.8zm-13.1.2h-15.2c-.1-.7-.1-1.5-.2-2.2-.3-3.3-.7-6.5-1.3-9.5 4.2-.4 8.3-1.1 12.2-2 1.9 3.7 3.2 7.7 4.1 11.9.2.6.3 1.2.4 1.8zm1.5-22c.9.9 1.7 1.8 2.5 2.7-2 .8-3.9 1.4-5.5 1.8-.5.1-.9.3-1.4.4-.9-1.7-1.9-3.3-3.1-4.8-2.9-4.1-6.4-7.7-10.3-10.7 6.6 1.9 12.7 5.5 17.8 10.6zm-25.4-12.2c6.2 3.5 11.5 8.2 15.6 13.9.9 1.3 1.7 2.5 2.5 3.9-3.6.8-7.4 1.4-11.3 1.8-1.7-7.9-4.3-14.7-7.5-19.7.2 0 .4.1.7.1zm-4.6-.2h.1c3.6 4.7 6.4 11.7 8.2 20.1-3.1.2-6.3.3-9.6.3-2.2 0-4.6-.1-7.1-.3 1.8-8.4 4.7-15.4 8.3-20.1h.1zm-3.8.1c-3.2 5-5.8 11.8-7.5 19.8-3.7-.3-7.5-.9-11.4-1.7.8-1.4 1.7-2.7 2.6-4 4.1-5.7 9.3-10.4 15.6-13.9.3-.1.5-.2.7-.2zm-8 22.7c-.5 3-1 6.2-1.3 9.4-.1.7-.1 1.5-.2 2.2h-15.2c.1-.6.2-1.3.3-1.9.8-4.1 2.2-8 4-11.7 4.3 1 8.4 1.6 12.4 2zm-18.1-10.4c5.1-5.1 11.2-8.7 17.8-10.7-4 3-7.4 6.6-10.3 10.7-1.1 1.6-2.2 3.3-3.1 5-2.3-.6-4.6-1.4-6.8-2.4.7-.9 1.5-1.8 2.4-2.6zm-4.4 5c2.4 1.1 4.9 1.9 7.3 2.6-1.8 3.7-3.1 7.7-4 11.9-.2.8-.3 1.6-.4 2.5H91.6c1.2-6.1 3.6-11.9 7.3-17zm-12 34.5c-.4 0-.7-.3-.7-.7v-13.2c0-.4.3-.7.7-.7h42.3c.8 0 1.5-.7 1.5-1.5s-.7-1.5-1.5-1.5h-6.3c0-.6.1-1.3.2-1.9.3-3.3.7-6.4 1.3-9.5 2.7.2 5.2.2 7.6.3h1.7c2.9 0 5.7-.1 8.5-.3.6 3 1 6.2 1.3 9.5.1.6.1 1.3.2 1.9h-5.3c-.8 0-1.5.7-1.5 1.5s.7 1.5 1.5 1.5h22.7v14.6H86.9zm73.8 3c-.8 3.2-2 6.2-3.5 9.1-3.9-.9-7.9-1.6-12.1-2 .4-2.3.8-4.7 1-7.1h14.6zm-17.5 0c-.3 2.3-.6 4.6-1 6.8-3.3-.3-6.8-.4-10.3-.3-2.4 0-5 .1-7.6.3-.4-2.2-.7-4.5-1-6.8h19.9zm-44.3 12.3c-2.7-3.8-4.8-7.9-6.2-12.3h9.9c.8 3.4 2 6.6 3.5 9.7-2.3.7-4.8 1.6-7.2 2.6zm6.8-12.3h14.6c.3 2.4.6 4.7 1 7-3.9.4-8.1.9-12.2 1.9-1.4-2.8-2.5-5.8-3.4-8.9zm23 29.6c-5.5-3.1-10.7-7.7-15-13.4-1.1-1.5-2.1-3-3.1-4.5 3.8-.9 7.7-1.4 11.3-1.7.6 2.7 1.3 5.2 2.1 7.6 1.2 3.5 3 8.2 5.5 12.1-.3-.1-.5-.1-.8-.1zm4.5.2h-.1c-2.3-3.1-4.5-7.6-6.4-13.2-.7-2.2-1.4-4.5-1.9-6.9 2.5-.2 4.9-.2 7.1-.3 3.3 0 6.5 0 9.6.3-.5 2.4-1.2 4.7-1.9 6.9-1.9 5.6-4.1 10.2-6.4 13.2.1 0 .1 0 0 0zm3.8-.2c2.5-3.9 4.3-8.6 5.5-12.1.8-2.4 1.5-4.9 2-7.6 3.9.4 7.6 1 11.2 1.8-.9 1.5-1.9 3-3 4.4-4.4 5.7-9.6 10.3-15.1 13.4-.1.1-.3.1-.6.1zm26.2-12.2c-5.1 5.1-11.3 8.7-18 10.7 3.6-2.8 7-6.3 10-10.2 1.3-1.7 2.5-3.6 3.6-5.4.5.1.9.3 1.4.4 1.6.5 3.5 1 5.5 1.8-.8.9-1.6 1.8-2.5 2.7zm4.3-5.1c-2.3-1-4.7-1.7-6.6-2.3-.3-.1-.5-.1-.8-.2 1.5-3.1 2.7-6.4 3.6-9.8h10c-1.4 4.4-3.4 8.6-6.2 12.3zm12.8-16c0 .4-.3.7-.7.7H164V109h15.6c.4 0 .7.3.7.7v13.2z"/><path class="st5" d="M94.3 119.2c0 .2-.3.4-.7.4-.4 0-.7-.2-.7-.4v-7.3c0-.3.3-.4.7-.4.4 0 .7.2.7.4v3.3c.2-.4.7-.8 1.4-.8 1 0 1.9 1 1.9 2.2v2.6c0 .3-.4.4-.7.4-.3 0-.7-.2-.7-.4v-2.6c0-.5-.4-1-.9-1-.4 0-.9.4-.9 1l-.1 2.6zM100.6 117.9c0 .4.2.6.6.6h.4c.4 0 .6.3.6.6s-.2.6-.6.6h-.4c-1.3 0-2-.5-2-1.8v-5.3c0-.3.4-.4.7-.4.4 0 .7.2.7.4v1.9h1.3c.2 0 .4.3.4.5 0 .3-.1.5-.4.5h-1.3v2.4zM105.1 117.9c0 .4.2.6.6.6h.4c.4 0 .6.3.6.6s-.2.6-.6.6h-.4c-1.3 0-2-.5-2-1.8v-5.3c0-.3.4-.4.7-.4.4 0 .7.2.7.4v1.9h1.3c.2 0 .4.3.4.5 0 .3-.1.5-.4.5h-1.3v2.4zM109.4 114.9v.3c.2-.4.8-.8 1.5-.8 1.1 0 1.9 1 1.9 2.2v.9c0 1.2-.9 2.2-1.9 2.2-.7 0-1.2-.4-1.4-.9v2.7c0 .2-.3.4-.7.4-.4 0-.7-.2-.7-.4v-6.7c0-.3.3-.4.7-.4.3.1.6.2.6.5zm2 1.7c0-.5-.4-1-1-1-.5 0-.9.4-.9 1v1.1c0 .2.4.8 1 .8.5 0 1-.5 1-1v-.9zM116.8 118.2c0-1-2.6-.4-2.6-2.2 0-.8.5-1.6 1.9-1.6.9 0 1.7.3 1.7.7 0 .2-.2.7-.5.7s-.6-.3-1.2-.3c-.5 0-.8.3-.8.5 0 .8 2.6.2 2.6 2.2 0 1-.7 1.6-2 1.6-1.1 0-2-.5-2-.9 0-.2.2-.6.5-.6s.6.5 1.5.5c.7-.1.9-.4.9-.6zM120.9 115.8c0 .4-.3.7-.7.7-.4 0-.7-.3-.7-.7 0-.4.3-.7.7-.7.3-.1.7.3.7.7zm0 3.1c0 .4-.3.7-.7.7-.4 0-.7-.3-.7-.7 0-.4.3-.7.7-.7.3 0 .7.3.7.7zM127.1 111.8v.2l-3.9 7.9c-.1.2-.2.2-.4.2-.3 0-.5-.2-.5-.5 0-.1 0-.1.1-.2l3.9-7.9c.1-.2.2-.2.4-.2.1 0 .4.2.4.5zM130.3 111.8v.2l-3.9 7.9c-.1.2-.2.2-.4.2-.3 0-.5-.2-.5-.5 0-.1 0-.1.1-.2l3.9-7.9c.1-.2.2-.2.4-.2s.4.2.4.5zM136.6 119.5c-.1.2-.3.2-.6.2s-.5-.1-.6-.2l-.8-2.4-.8 2.4c-.1.2-.3.3-.6.3-.2 0-.5-.1-.5-.3l-1.7-4.3c0-.1-.1-.2-.1-.2 0-.3.5-.6.9-.6.2 0 .3.1.4.2l1.1 3.1.8-2.7c.1-.2.3-.3.5-.3s.4 0 .5.3l.8 2.7 1.1-3.1c.1-.1.2-.2.4-.2.3 0 .9.2.9.6v.2l-1.7 4.3zM144.8 119.5c-.1.2-.3.2-.6.2s-.5-.1-.6-.2l-.8-2.4-.8 2.4c-.1.2-.3.3-.6.3-.2 0-.5-.1-.5-.3l-1.7-4.3c0-.1-.1-.2-.1-.2 0-.3.5-.6.9-.6.2 0 .3.1.4.2l1.1 3.1.8-2.7c.1-.2.3-.3.5-.3s.4 0 .5.3l.8 2.7 1.1-3.1c.1-.1.2-.2.4-.2.3 0 .9.2.9.6v.2l-1.7 4.3zM152.9 119.5c-.1.2-.3.2-.6.2s-.5-.1-.6-.2l-.8-2.4-.8 2.4c-.1.2-.3.3-.6.3-.2 0-.5-.1-.5-.3l-1.7-4.3c0-.1-.1-.2-.1-.2 0-.3.5-.6.9-.6.2 0 .3.1.4.2l1.1 3.1.8-2.7c.1-.2.3-.3.5-.3s.4 0 .5.3l.8 2.7 1.1-3.1c.1-.1.2-.2.4-.2.3 0 .9.2.9.6v.2l-1.7 4.3zM176.4 113.2l-1.6-.2-.7-1.4c-.4-.8-1.1-1.2-2-1.2s-1.6.5-2 1.2l-.7 1.4-1.6.2c-.8.1-1.5.7-1.8 1.5-.3.8 0 1.7.6 2.3l1.1 1.1-.3 1.6c-.1.8.2 1.7.9 2.2.7.5 1.6.6 2.3.2l1.4-.7 1.4.7c.3.2.7.3 1 .3.5 0 .9-.1 1.3-.4.7-.5 1-1.3.9-2.2l-.3-1.6 1.1-1.1c.6-.6.8-1.5.6-2.3-.1-.9-.7-1.5-1.6-1.6zm-2.2 3.1c-.5.5-.8 1.2-.6 1.9l.1.5-.4-.2c-.6-.3-1.4-.3-2 0l-.4.2.1-.5c.1-.7-.1-1.4-.6-1.9l-.4-.3.5-.1c.7-.1 1.3-.6 1.7-1.2l.2-.4.2.4c.3.6.9 1.1 1.7 1.2l.5.1-.6.3z"/></g></svg>