<svg version="1.1" id="Layer_1" xmlns="http://www.w3.org/2000/svg" x="0" y="0" viewBox="0 0 251.4 226.3" xml:space="preserve"><style>.st9{fill:#808285;stroke:#808285;stroke-width:.75;stroke-miterlimit:10}</style><radialGradient id="SVGID_1_" cx="143.111" cy="109.683" r="126.128" gradientUnits="userSpaceOnUse"><stop offset="0" stop-color="#828282"/><stop offset=".316" stop-color="#848484" stop-opacity=".684"/><stop offset=".493" stop-color="#8c8c8c" stop-opacity=".507"/><stop offset=".635" stop-color="#999a9a" stop-opacity=".365"/><stop offset=".758" stop-color="#acadae" stop-opacity=".241"/><stop offset=".87" stop-color="#c5c6c7" stop-opacity=".13"/><stop offset=".972" stop-color="#e2e4e6" stop-opacity=".028"/><stop offset="1" stop-color="#eceef0" stop-opacity="0"/></radialGradient><path d="M86 162.9l60.1 60.1c2.6.2 2.8.4 5.4 0 44-7.1 91.4-42.8 96.2-98.9.1-1.5-.3.4-.3-1l-47-47L86 162.9z" fill="url(#SVGID_1_)"/><path d="M138.3 0c-25.1 0-48.9 8.1-68.8 23.3l3.7 4.8C92 13.6 114.5 6 138.3 6c59.1 0 107.1 48.1 107.1 107.1 0 59.1-48.1 107.1-107.1 107.1-29.6 0-58.9-13.2-79.1-34.8H9v-17.9c35-32.2 60.2-55.4 60.2-76 0-13.8-7.7-22-20.7-22-9.9 0-17.7 6.6-23.5 12.3L8.4 65.3c14.4-14.6 27-20 45.6-20 27.7 0 46.3 17.7 46.3 44.1 0 22.1-21.6 47-40.3 66.2l-6 6.1 8.5-1.1c6.9-.9 17.2-1.8 23.6-1.8h21v29.6h6v-35.6h-27c-4.4 0-10.4.4-16.1.9 18-19.1 36.3-42.5 36.3-64.5 0-14.7-5.1-27.3-14.7-36.4C82.1 44 69.1 39.3 54 39.3c-21.1 0-35.7 6.7-52 24l-2 2.1 25 25 2.1-2.1c6.9-6.9 13.4-12.7 21.4-12.7 9.6 0 14.7 5.5 14.7 16 0 18-25.8 41.7-58.4 71.7L3 165v26.5h53.7c21.3 22.1 50.9 34.8 81.6 34.8 62.4 0 113.1-50.7 113.1-113.1C251.4 50.7 200.7 0 138.3 0z" fill="#00aeef"/><path d="M210.6 113c0 39.9-32.3 72.3-72.3 72.3-39.9 0-72.3-32.4-72.3-72.3s32.4-72.3 72.3-72.3c39.9.1 72.3 32.4 72.3 72.3z" fill="#fff"/><radialGradient id="SVGID_2_" cx="78.744" cy="45.428" r="208.815" gradientUnits="userSpaceOnUse"><stop offset="0" stop-color="#f6f6f7"/><stop offset=".477" stop-color="#fafafb"/><stop offset=".715" stop-color="#fff"/></radialGradient><path d="M210.6 113c0-18.4-6.9-35.1-18.1-47.9-13.2-13.8-31.7-22.4-52.3-22.4-39.9 0-72.3 32.4-72.3 72.3 0 18.4 6.9 35.1 18.1 47.9 13.2 13.8 31.7 22.4 52.3 22.4 39.9 0 72.3-32.4 72.3-72.3z" fill="url(#SVGID_2_)"/><g><path d="M203.3 81.3c4 9 6.2 18.9 6.2 29.4 0 39.9-32.4 72.3-72.3 72.3-24 0-45.2-11.7-58.4-29.7 2.1 3.4 4.5 6.6 7.2 9.6 13.2 13.8 31.7 22.4 52.3 22.4 39.9 0 72.3-32.4 72.3-72.3 0-11.3-2.7-22.1-7.3-31.7z" fill="#eceef0"/></g><path d="M174.5 125.5H104c-10.1 0-18.3-8.2-18.3-18.3v0c0-10.1 8.2-18.3 18.3-18.3h70.5c10.1 0 18.3 8.2 18.3 18.3v0c0 10.1-8.2 18.3-18.3 18.3z" fill="none" stroke="#808285" stroke-width="3" stroke-miterlimit="10"/><text transform="translate(95.61 113.012)" font-size="15" font-family="Montserrat-ExtraBold" fill="#808285">Co-Browse</text><g><path class="st9" d="M167.4 143c.5-.2.7-.8.5-1.3s-.8-.7-1.3-.5c-.5.2-.7.8-.5 1.3s.8.8 1.3.5z"/><path class="st9" d="M143.3 153.4c1.6 2.1 3.5 4 5.7 5.5 2.1 1.6 4.5 2.8 7 3.8l1.7 3.7c.2.5.8.7 1.3.5l16.1-7.3c.5-.2.7-.8.5-1.3l-1.8-3.8c.7-4.6 0-9.4-1.9-13.7l-3.2-7c-.9-2-3.2-2.8-5.2-1.9-.7.3-1.3.9-1.7 1.5-1.1-1.2-2.9-1.6-4.5-.9-.7.3-1.3.9-1.7 1.5-1.1-1.2-2.9-1.6-4.5-.9-.6.3-1.2.7-1.6 1.3l-3.7-8.2c-.9-2-3.2-2.8-5.2-1.9-2 .9-2.8 3.2-1.9 5.2l5.9 12.9-1.7 2.7c-1.7 2.7-1.5 6 .4 8.3zm1.2-7.1l1-1.6 2.8 6.1c.2.5.8.7 1.3.5s.7-.8.5-1.3c-.3-.7-9.4-20.5-9.6-21.1-.4-1 0-2.2 1-2.6 1-.5 2.2 0 2.6 1l8 17.5c.2.5.8.7 1.3.5s.7-.8.5-1.3l-2.9-6.3c-.5-1 0-2.2 1-2.6 1-.4 2.2 0 2.6 1l2.9 6.3c.2.5.8.7 1.3.5s.7-.8.5-1.3l-2-4.5c-.4-1 0-2.2 1-2.6 1-.4 2.2 0 2.6 1l2 4.5c.2.5.8.7 1.3.5.5-.2.7-.8.5-1.3l-1.2-2.7c-.4-1 0-2.2 1-2.6 1-.4 2.2 0 2.6 1l3.2 7c1.8 4 2.4 8.5 1.7 12.9 0 .2 0 .4.1.6l1.5 3.2-14.3 6.5-1.5-3.2c-.1-.2-.3-.4-.5-.5-.3-.1-3.4-1.1-6.9-3.7-2-1.5-3.8-3.2-5.3-5.2-1.6-2-1.8-4.4-.6-6.2z"/><path class="st9" d="M168.7 155c.5.1 1-.3 1.1-.8.5-2.9.3-5.8-.5-8.6-.1-.5-.7-.8-1.2-.7-.5.1-.8.7-.7 1.2.7 2.6.8 5.2.4 7.8 0 .5.4 1 .9 1.1z"/></g></svg>