<svg width="20" height="19" viewBox="0 0 20 19" fill="none" xmlns="http://www.w3.org/2000/svg">
<path fill-rule="evenodd" clip-rule="evenodd" d="M1.15204 3.96491C0.796272 3.67876 0.274626 3.97993 0.344563 4.43111L2.30582 17.0838C2.37605 17.5369 2.96826 17.6644 3.21873 17.2803L5.77614 13.3588C5.8632 13.2253 6.00868 13.1413 6.16782 13.1326L8.07352 13.0291L7.45426 9.03404L1.15204 3.96491Z" fill="#00AEEF"/>
<path d="M7.83655 4.43115C7.76661 3.97997 8.28826 3.67879 8.64402 3.96495L18.6209 11.9898C18.9782 12.2772 18.7925 12.8538 18.3347 12.8787L13.6598 13.1327C13.5007 13.1413 13.3552 13.2253 13.2681 13.3588L10.7107 17.2804C10.4602 17.6644 9.86804 17.5369 9.7978 17.0838L7.83655 4.43115Z" fill="#F59642"/>
</svg>
